HIERARCHY
ROOT RootJoint
{
    OFFSET   0.000000   0.000000   0.000000
    CHANNELS 6 Xposition Yposition Zposition Xrotation Yrotation Zrotation
    JOINT pelvis_lowerback
    {
        OFFSET   0.000000   0.093605   0.000000
        CHANNELS 3 Xrotation Yrotation Zrotation
        JOINT lowerback_torso
        {
            OFFSET   0.000000   0.100000   0.000000
            CHANNELS 3 Xrotation Yrotation Zrotation
            JOINT torso_head
            {
                OFFSET   0.000000   0.282350   0.000000
                CHANNELS 3 Xrotation Yrotation Zrotation
                End Site
                {
                    OFFSET   0.000000   0.192650   0.000000
                }
            }
            JOINT rTorso_Clavicle
            {
                OFFSET  -0.001000   0.157500   0.000000
                CHANNELS 3 Xrotation Yrotation Zrotation
                JOINT rShoulder
                {
                    OFFSET  -0.117647   0.000000   0.000000
                    CHANNELS 3 Xrotation Yrotation Zrotation
                    JOINT rElbow
                    {
                        OFFSET  -0.245000   0.000000   0.000000
                        CHANNELS 3 Xrotation Yrotation Zrotation
                        JOINT rWrist
                        {
                            OFFSET  -0.240000   0.000000   0.000000
                            CHANNELS 3 Xrotation Yrotation Zrotation
                            End Site
                            {
                                OFFSET  -0.116353  -0.002500   0.000000
                            }
                        }
                    }
                }
            }
            JOINT lTorso_Clavicle
            {
                OFFSET   0.001000   0.157500   0.000000
                CHANNELS 3 Xrotation Yrotation Zrotation
                JOINT lShoulder
                {
                    OFFSET   0.117647   0.000000   0.000000
                    CHANNELS 3 Xrotation Yrotation Zrotation
                    JOINT lElbow
                    {
                        OFFSET   0.245000   0.000000   0.000000
                        CHANNELS 3 Xrotation Yrotation Zrotation
                        JOINT lWrist
                        {
                            OFFSET   0.240000   0.000000   0.000000
                            CHANNELS 3 Xrotation Yrotation Zrotation
                            End Site
                            {
                                OFFSET   0.116353  -0.002500   0.000000
                            }
                        }
                    }
                }
            }
        }
    }
    JOINT rHip
    {
        OFFSET  -0.100000  -0.051395   0.000000
        CHANNELS 3 Xrotation Yrotation Zrotation
        JOINT rKnee
        {
            OFFSET   0.000000  -0.410000   0.000000
            CHANNELS 3 Xrotation Yrotation Zrotation
            JOINT rAnkle
            {
                OFFSET   0.000000  -0.390000   0.000000
                CHANNELS 3 Xrotation Yrotation Zrotation
                JOINT rToeJoint
                {
                    OFFSET   0.000000  -0.050000   0.130000
                    CHANNELS 3 Xrotation Yrotation Zrotation
                    End Site
                    {
                        OFFSET  -0.010000   0.002000   0.060000
                    }
                }
            }
        }
    }
    JOINT lHip
    {
        OFFSET   0.100000  -0.051395   0.000000
        CHANNELS 3 Xrotation Yrotation Zrotation
        JOINT lKnee
        {
            OFFSET   0.000000  -0.410000   0.000000
            CHANNELS 3 Xrotation Yrotation Zrotation
            JOINT lAnkle
            {
                OFFSET   0.000000  -0.390000   0.000000
                CHANNELS 3 Xrotation Yrotation Zrotation
                JOINT lToeJoint
                {
                    OFFSET   0.000000  -0.050000   0.130000
                    CHANNELS 3 Xrotation Yrotation Zrotation
                    End Site
                    {
                        OFFSET   0.010000   0.002000   0.060000
                    }
                }
            }
        }
    }
}
MOTION
Frames: 10
Frame Time:   0.008333
 -2.203674   0.873916   5.358872  -2.362840  22.035604   1.701701   8.701359  -8.068482  -2.064221   5.527392  -5.355677   0.327764   1.674091   1.703929  -0.449869  10.789105 -12.229235   5.912705  25.155406   0.749536  53.263769  -0.001381  10.171511  -0.005467   5.433675   1.333059   5.506087   1.354220  -1.197566  -4.376740  -8.037687 -13.124542 -46.557769  -0.004360 -49.728703  -0.001812   3.743784  -6.751263   1.619660 -28.588485  -6.971070  -8.797328  12.938914  -0.000822  -0.004781  -5.259460 -14.698950   3.975538  -2.486720  -0.002433   0.004075  24.805384  -6.223299   4.922525  13.366166  -0.002853   0.005760   1.298079  -7.056727  -0.590321 -46.323741  -0.001819  -0.004084
 -2.203036   0.872784   5.375329  -2.278323  22.131566   1.699263   8.638472  -8.273096  -2.027545   5.477968  -5.351899   0.327323   1.450645   1.683387  -0.561694  10.868249 -12.471845   6.030259  25.062006   0.292195  53.129907  -0.001298   9.883849  -0.005850   5.397006   1.119863   5.499215   1.375490  -1.021413  -4.424589  -8.008597 -12.853018 -46.708022  -0.004115 -50.205263  -0.002965   3.766638  -6.800754   1.668381 -28.464826  -6.881185  -8.326194  14.041576  -0.005149  -0.000893  -5.033145 -14.512472   3.632320  -2.375062  -0.001717   0.003596  25.148322  -6.184595   5.174234  14.235991  -0.003453   0.005719   2.495676  -6.894343  -0.411790 -46.059135  -0.002058  -0.002795
 -2.202450   0.872562   5.392603  -2.189477  22.191966   1.645275   8.521465  -8.482875  -1.929758   5.398416  -5.333167   0.335901   1.223321   1.655660  -0.668988  10.927753 -12.700808   6.122881  24.960374  -0.127786  53.002633  -0.001325   9.627481  -0.006018   5.346490   0.979912   5.476764   1.468340  -0.804043  -4.505663  -7.919507 -12.561164 -46.885776  -0.003730 -50.626993  -0.003657   3.777281  -6.715770   1.657716 -28.163385  -6.844804  -7.692182  15.271248  -0.009930   0.002558  -4.807200 -14.342090   3.313302  -2.241547  -0.001131   0.003232  25.364203  -6.140989   5.458228  15.251811  -0.004328   0.005611   4.306100  -6.712274  -0.284306 -45.847479  -0.001985  -0.001741
 -2.201898   0.872693   5.410324  -2.063951  22.277091   1.539836   8.371291  -8.687710  -1.776742   5.288363  -5.312931   0.374128   0.997751   1.627816  -0.763858  10.984547 -12.918752   6.183448  24.866391  -0.521393  52.881274  -0.001348   9.392696  -0.005927   5.291497   0.893123   5.469680   1.577619  -0.587436  -4.579984  -7.817199 -12.283540 -47.066952  -0.003595 -51.018854  -0.004140   3.784683  -6.593384   1.587108 -27.753162  -6.837805  -6.972216  16.505950  -0.014062   0.005916  -4.591425 -14.184109   3.016584  -2.114169  -0.000706   0.002963  25.455910  -6.103753   5.785948  16.331611  -0.005178   0.005721   6.510620  -6.527600  -0.199454 -45.678150  -0.001798  -0.000903
 -2.201351   0.872761   5.428233  -1.895673  22.406332   1.395086   8.209441  -8.886761  -1.576776   5.157141  -5.295377   0.444532   0.777896   1.601493  -0.847518  11.041096 -13.123059   6.211543  24.781988  -0.892325  52.759823  -0.001323   9.175183  -0.005616   5.235651   0.834143   5.470928   1.675165  -0.386508  -4.628342  -7.724831 -12.029970 -47.235678  -0.003767 -51.391032  -0.004498   3.791426  -6.488386   1.500991 -27.288566  -6.844398  -6.218041  17.710576  -0.017178   0.009171  -4.387333 -14.036947   2.740356  -1.996978  -0.000404   0.002774  25.448685  -6.072240   6.150476  17.416357  -0.005799   0.006134   8.952846  -6.342042  -0.148537 -45.542666  -0.001587  -0.000252
 -2.201015   0.874193   5.444930  -1.702588  22.368256   0.846067   8.298990  -8.993064  -1.017586   5.068210  -5.201372   0.664961   0.558272   1.580918  -0.914714  10.982269 -13.183784   6.247784  24.609173  -1.171353  52.606959  -0.001305   9.001454  -0.004865   5.170471   0.861352   5.399957   1.720028  -0.267498  -4.733692  -7.680468 -11.818884 -47.410430  -0.002938 -51.736596  -0.003611   3.796340  -6.371849   1.515860 -27.188143  -6.678749  -5.360745  19.254291  -0.016879   0.014083  -3.804948 -13.829129   2.491148  -1.819239   0.000463   0.003103  25.338976  -6.011168   6.794369  18.515709  -0.007145   0.004018  11.619703  -6.094575  -0.126583 -44.804307  -0.001723   0.001198
 -2.200661   0.875735   5.461556  -1.522115  22.343494   0.371463   8.352736  -9.113477  -0.574479   5.027202  -5.117022   0.896774   0.381424   1.559874  -0.964427  10.932425 -13.253941   6.264312  24.450080  -1.430321  52.478531  -0.001240   8.847566  -0.004232   5.107167   0.962943   5.359048   1.767087  -0.139143  -4.767772  -7.632679 -11.624412 -47.558286  -0.002369 -52.070200  -0.002785   3.803122  -6.301831   1.472601 -26.969621  -6.676913  -4.595971  20.591511  -0.016276   0.015099  -3.470694 -13.701577   2.293788  -1.702116   0.000762   0.002829  25.225025  -5.982306   7.372479  19.534514  -0.007980   0.002541  14.207934  -5.876185  -0.122898 -42.714173  -0.002521   0.004857
 -2.200158   0.877520   5.477916  -1.556054  22.158530  -0.014808   8.542641  -9.183375  -0.190109   5.061727  -5.081080   1.133637   0.179041   1.546875  -0.952728  10.834205 -13.252661   6.120676  24.065375  -1.550825  52.379148  -0.000998   8.839160  -0.003415   5.080622   0.768238   5.390261   1.738517   0.028298  -4.732372  -7.467168 -11.198128 -47.945779  -0.002049 -51.961643  -0.002221   3.767079  -6.582391   1.626847 -26.369675  -6.614144  -3.738463  21.596545  -0.015339   0.014371  -3.438516 -13.577526   1.752290  -1.711109   0.000554   0.002241  24.589233  -5.727258   7.735358  22.593968  -0.009839   0.004124  15.619919  -5.386805  -0.060810 -39.130158  -0.009277   0.021903
 -2.199434   0.879275   5.494406  -1.664764  21.820112  -0.336200   8.673303  -9.184458   0.130865   5.118493  -4.984644   1.321290  -0.003728   1.529467  -0.933180  10.713226 -13.228647   5.952209  23.679058  -1.644315  52.260455  -0.000797   8.850269  -0.002688   5.045964   0.657342   5.383360   1.797405   0.243653  -4.741918  -7.233765 -10.750948 -48.332270  -0.001899 -51.814933  -0.001730   3.722503  -6.637223   1.708879 -25.624710  -6.544439  -2.884047  22.457201  -0.014364   0.012266  -3.473462 -13.453311   1.221189  -1.750260   0.000245   0.001739  23.987203  -5.460535   7.941650  25.744885  -0.010810   0.002457  16.951942  -4.927275  -0.015329 -35.876720  -0.010307   0.030849
 -2.198585   0.880899   5.510989  -1.791047  21.431275  -0.613706   8.736976  -9.150556   0.396997   5.154191  -4.854062   1.470731  -0.178474   1.511358  -0.912816  10.593625 -13.201274   5.783446  23.312113  -1.726960  52.138914  -0.000638   8.865723  -0.002086   5.008149   0.593313   5.350833   1.904370   0.485831  -4.777596  -6.967519 -10.306526 -48.708321  -0.001726 -51.658672  -0.001198   3.676289  -6.569353   1.718318 -24.822504  -6.486980  -2.072249  23.240678  -0.013444   0.009892  -3.532732 -13.337314   0.720078  -1.793424  -0.000006   0.001363  23.421225  -5.207380   8.069670  28.742014  -0.011348  -0.000047  18.197984  -4.499401   0.017542 -32.899674  -0.009613   0.034760
